<svg width="34" height="34" viewBox="0 0 34 34" fill="none" xmlns="http://www.w3.org/2000/svg">
<g id="Frame 7.2" clip-path="url(#clip0_0_5999)">
<g id="Group 31.1">
<g id="Group 2">
<circle id="Ellipse" cx="17" cy="17" r="17" fill="#D72130"/>
<g id="Group">
<path id="Vector" d="M24.9818 10.4106C24.8616 9.95973 24.7814 9.70922 24.7814 9.70922C24.6511 9.24328 24.3205 9.24328 23.8295 9.16311L21.1691 8.82743C20.8384 8.77232 20.8384 8.77232 20.7081 8.48674C20.2723 7.50475 20.137 6.93359 19.661 6.93359H14.5005C14.0246 6.93359 13.8943 7.50475 13.4584 8.49175C13.3282 8.77232 13.3282 8.77232 12.9975 8.83244L10.3321 9.16812C9.84611 9.24829 9.4954 9.29338 9.36513 9.75932C9.36513 9.75932 9.30501 9.96474 9.17976 10.4106C9.01943 11.0069 8.9543 10.9417 9.50542 10.9417H24.6561C25.2073 10.9467 25.1471 11.0069 24.9818 10.4106Z" fill="white"/>
<path id="Vector_2" d="M23.2616 12.5449H10.8965C10.0648 12.5449 10.0247 12.6551 10.0748 13.2814L11.0117 25.4361C11.0919 26.0523 11.152 26.1776 11.8885 26.1776H22.2696C23.0061 26.1776 23.0662 26.0523 23.1463 25.4361L24.0832 13.2814C24.1333 12.6501 24.0933 12.5449 23.2616 12.5449Z" fill="white"/>
</g>
</g>
</g>
</g>
<defs>
<clipPath id="clip0_0_5999">
<rect width="34" height="34" fill="white"/>
</clipPath>
</defs>
</svg>
