<svg width="15" height="10" viewBox="0 0 15 10" fill="none" xmlns="http://www.w3.org/2000/svg">
<path id="Vector" fill-rule="evenodd" clip-rule="evenodd" d="M5.59934 4.86698C5.59934 5.87401 6.43639 6.69212 7.46682 6.69212C8.49721 6.69212 9.33429 5.87401 9.33429 4.86698V4.85181C9.13495 5.04951 8.86137 5.17118 8.55614 5.17118C7.95529 5.17118 7.46682 4.69361 7.46682 4.10653C7.46682 3.6838 7.7218 3.31561 8.08619 3.14523C7.89329 3.07837 7.68476 3.04187 7.46682 3.04187C6.43639 3.04184 5.59934 3.86004 5.59934 4.86698ZM14.5197 3.82961C13.3616 2.39094 10.5419 -6.10352e-05 7.46983 -6.10352e-05C4.39482 -6.10352e-05 1.572 2.39097 0.413933 3.82961C0.152548 4.15819 0.00938653 4.51409 0 4.86698C0.00942079 5.2199 0.152548 5.5758 0.413933 5.90431C1.57204 7.34328 4.39173 9.73395 7.46682 9.73395C10.5419 9.73395 13.3616 7.34328 14.5197 5.90431C14.7841 5.57577 14.9273 5.2199 14.9367 4.86698C14.9273 4.51409 14.7841 4.15819 14.5197 3.82961ZM7.46682 7.90881C5.74891 7.90881 4.35436 6.54604 4.35436 4.86698C4.35436 3.18788 5.74891 1.82508 7.46682 1.82508C9.18469 1.82508 10.5792 3.18788 10.5792 4.86698C10.5792 6.54601 9.18466 7.90881 7.46682 7.90881Z" fill="#D4D9E2"/>
</svg>
