<svg width="13" height="14" viewBox="0 0 13 14" fill="none" xmlns="http://www.w3.org/2000/svg">
<path d="M3.30205 8.77354C2.74096 9.33609 1.9051 9.49741 1.18302 9.18251C0.460946 8.86761 -0.0056828 8.13828 5.22717e-05 7.33354C0.000534416 6.53186 0.467712 5.80794 1.18703 5.49425C1.90635 5.18055 2.73879 5.33771 3.30205 5.89354L9.11305 2.91354C8.99428 1.94735 9.57128 1.03387 10.4796 0.750133C11.3879 0.466395 12.3634 0.894889 12.7899 1.76494C13.2164 2.63499 12.97 3.69366 12.2062 4.27219C11.4424 4.85071 10.3834 4.78091 9.69805 4.10688L3.88705 7.08688C3.9067 7.2507 3.9067 7.41638 3.88705 7.58021L9.69805 10.5602C10.2591 9.99767 11.095 9.83635 11.8171 10.1512C12.5392 10.4661 13.0058 11.1955 13.0001 12.0002C12.994 12.7402 12.5901 13.4164 11.9499 13.7578C11.3098 14.0993 10.5381 14.0504 9.94391 13.6305C9.34971 13.2107 9.03009 12.4887 9.11305 11.7535L3.30205 8.77354Z" fill="white"/>
</svg>
