<svg width="29" height="30" viewBox="0 0 29 30" fill="none" xmlns="http://www.w3.org/2000/svg">
<path class='arrow' fill-rule="evenodd" clip-rule="evenodd" d="M12 15.8199L16.8097 10.8215L12 15.8199L16.8097 20.8184L12 15.8199Z" fill="#979797" stroke="#979797" stroke-linejoin="round"/>
<path fill-rule="evenodd" clip-rule="evenodd" d="M0 15.32C0 23.3256 6.49187 29.8155 14.5 29.8155C22.5081 29.8155 29 23.3256 29 15.32C29 7.31433 22.5081 0.824463 14.5 0.824463C6.49187 0.824463 0 7.31433 0 15.32ZM28 15.32C28 22.7735 21.9558 28.8158 14.5 28.8158C7.04416 28.8158 1 22.7735 1 15.32C1 7.86644 7.04416 1.82415 14.5 1.82415C21.9558 1.82415 28 7.86644 28 15.32Z" fill="#979797"/>
</svg>
