<svg width="10" height="10" viewBox="0 0 10 10" fill="none" xmlns="http://www.w3.org/2000/svg">
<path fill-rule="evenodd" clip-rule="evenodd" d="M3.58574 5.00003L0.292893 1.70718C-0.0976311 1.31656 -0.0976311 0.683502 0.292893 0.292877C0.683418 -0.0976257 1.31658 -0.0976257 1.70711 0.292877L5 3.58572L8.29289 0.292877C8.68342 -0.0976257 9.31658 -0.0976257 9.70711 0.292877C10.0976 0.683502 10.0976 1.31656 9.70711 1.70718L6.41426 5.00003L9.70711 8.29288C10.0976 8.6835 10.0976 9.31656 9.70711 9.70718C9.31658 10.0977 8.68342 10.0977 8.29289 9.70718L5 6.41434L1.70711 9.70718C1.31658 10.0977 0.683417 10.0977 0.292893 9.70718C-0.0976305 9.31656 -0.0976305 8.6835 0.292893 8.29288L3.58574 5.00003Z" fill="#E1464E"/>
</svg>
