<svg width="63" height="63" viewBox="0 0 63 63" fill="none" xmlns="http://www.w3.org/2000/svg">
<g id="Group 2.1">
<circle id="Ellipse 2.1" cx="31.5" cy="31.5" r="31.5" fill="#D72130"/>
<g id="Group">
<path id="Vector" d="M44.4008 23.4414H39.5817L36.6973 20.5285C36.6973 20.5285 36.683 20.5142 36.6759 20.5142L36.6616 20.5C36.2333 20.0716 35.655 19.8003 34.9981 19.8003H29.001C28.3014 19.8003 27.6802 20.1001 27.2447 20.5785V20.5856L24.4247 23.4414H19.4985C18.1705 23.4414 17.0996 24.4838 17.0996 25.8117V40.2405C17.0996 41.5684 18.1705 42.6464 19.4985 42.6464H44.4008C45.7216 42.6464 46.7996 41.5684 46.7996 40.2405V25.8117C46.7996 24.4838 45.7216 23.4414 44.4008 23.4414ZM31.9496 39.041C28.3156 39.041 25.3528 36.071 25.3528 32.4299C25.3528 28.7817 28.3156 25.8188 31.9496 25.8188C35.5907 25.8188 38.5464 28.7817 38.5464 32.4299C38.5464 36.071 35.5907 39.041 31.9496 39.041ZM43.951 27.261C43.4012 27.261 42.9515 26.8112 42.9515 26.2543C42.9515 25.6975 43.4012 25.2477 43.951 25.2477C44.5007 25.2477 44.9505 25.6975 44.9505 26.2543C44.9505 26.8112 44.5007 27.261 43.951 27.261Z" fill="white"/>
<path id="Vector_2" d="M31.9501 27.4321C29.1943 27.4321 26.9668 29.6668 26.9668 32.4297C26.9668 35.1855 29.1943 37.4273 31.9501 37.4273C34.6988 37.4273 36.9334 35.1927 36.9334 32.4297C36.9334 29.6668 34.6988 27.4321 31.9501 27.4321Z" fill="white"/>
</g>
</g>
</svg>
